<svg width="12" height="6" viewBox="0 0 12 6" fill="none" xmlns="http://www.w3.org/2000/svg">
<path fill-rule="evenodd" clip-rule="evenodd" d="M5.52267 5.78259C5.48591 5.80972 5.44684 5.83365 5.40591 5.85411C5.36263 5.88793 5.31606 5.91741 5.2669 5.94213C5.21623 5.95819 5.16408 5.96925 5.11121 5.97514C5.01012 6.00829 4.90092 6.00829 4.79983 5.97514C4.74696 5.96925 4.69481 5.95819 4.64414 5.94213C4.59497 5.91741 4.54841 5.88793 4.50513 5.85411C4.46419 5.83365 4.42513 5.80972 4.38836 5.78259L0.21809 1.38156C-0.0897481 1.04795 -0.0692512 0.531461 0.264077 0.222757C0.597405 -0.0859475 1.11966 -0.0721111 1.43581 0.253799L5 4.01118L8.56419 0.253799C8.88034 -0.0721111 9.4026 -0.0859475 9.73592 0.222757C10.0693 0.531461 10.0897 1.04795 9.78191 1.38156L5.52267 5.78259Z" fill="#fff"/>
</svg>
