<?xml version="1.0" encoding="UTF-8"?>
<svg xmlns="http://www.w3.org/2000/svg" xmlns:xlink="http://www.w3.org/1999/xlink" viewBox="0 0 50 50" width="50px" height="50px">
<g id="surface21742044">
<path style=" stroke:none;fill-rule:nonzero;fill:rgb(56.470591%,56.470591%,56.470591%);fill-opacity:1;" d="M 40.78125 7.269531 C 40.253906 7.285156 39.753906 7.503906 39.386719 7.886719 L 25.050781 22.222656 L 10.714844 7.886719 C 10.339844 7.5 9.820312 7.28125 9.277344 7.277344 C 8.464844 7.28125 7.730469 7.773438 7.425781 8.527344 C 7.121094 9.28125 7.300781 10.148438 7.886719 10.714844 L 22.222656 25.050781 L 7.886719 39.386719 C 7.363281 39.886719 7.152344 40.632812 7.335938 41.335938 C 7.519531 42.035156 8.066406 42.582031 8.765625 42.765625 C 9.46875 42.949219 10.214844 42.738281 10.714844 42.214844 L 25.050781 27.878906 L 39.386719 42.214844 C 39.886719 42.738281 40.632812 42.949219 41.335938 42.765625 C 42.035156 42.582031 42.582031 42.035156 42.765625 41.335938 C 42.949219 40.632812 42.738281 39.886719 42.214844 39.386719 L 27.878906 25.050781 L 42.214844 10.714844 C 42.808594 10.144531 42.996094 9.265625 42.675781 8.503906 C 42.359375 7.742188 41.609375 7.253906 40.78125 7.269531 Z M 40.78125 7.269531 "/>
</g>
</svg>
